<?xml version="1.0" encoding="UTF-8"?>
<svg id="Calque_1" data-name="Calque 1" xmlns="http://www.w3.org/2000/svg" viewBox="0 0 205 175">
  <defs>
    <style>
      .cls-1 {
        fill: #e30613;
      }

      .cls-1, .cls-2 {
        stroke-width: 0px;
      }

      .cls-2 {
        fill: #fff;
      }
    </style>
  </defs>
  <rect class="cls-1" x="21.1" y="18.02" width="162.79" height="138.97" rx="8.5" ry="8.5"/>
  <g>
    <g>
      <path class="cls-2" d="m89.45,63.9h26.1v3.4h-25.72c-.29,0-.41-.06-.39-.39.02-.89,0-1.8,0-2.69v-.35"/>
      <path class="cls-2" d="m115.55,57.1v3.36h-25.74c-.27,0-.37-.06-.37-.35v-3.05h26.1v.04Z"/>
      <path class="cls-2" d="m97.43,80.88v-3.4h9.85c.25,0,.35.06.35.33v3.07h-10.2Z"/>
      <rect class="cls-2" x="97.43" y="84.34" width="10.16" height="3.36"/>
      <rect class="cls-2" x="97.43" y="70.7" width="10.16" height="3.36"/>
    </g>
    <g>
      <path class="cls-2" d="m46.04,110.21c0,.86.66,1.64,1.85,1.64,1.11,0,1.59-.31,2.16-.88l1.91,1.91c-1.07,1.07-2.13,1.66-4.08,1.66-2.32,0-4.99-.84-4.99-5.36,0-3.43,1.95-5.36,4.7-5.36,3.04,0,4.71,2.22,4.71,4.97v1.43h-6.27,0Zm2.94-2.94c-.19-.45-.62-.82-1.38-.82s-1.19.37-1.38.82c-.13.27-.18.57-.18.82h3.12c0-.26-.04-.55-.18-.82"/>
      <polygon class="cls-2" points="65.22 103.58 65.22 114.42 61.81 114.42 61.81 103.58 58.4 103.58 58.4 100.54 68.63 100.54 68.63 103.58 65.22 103.58"/>
      <path class="cls-2" d="m71.47,110.21c0,.86.66,1.64,1.85,1.64,1.11,0,1.59-.31,2.16-.88l1.91,1.91c-1.07,1.07-2.13,1.66-4.08,1.66-2.32,0-4.99-.84-4.99-5.36,0-3.43,1.95-5.36,4.7-5.36,3.04,0,4.71,2.22,4.71,4.97v1.43h-6.27Zm2.94-2.94c-.19-.45-.62-.82-1.38-.82s-1.19.37-1.38.82c-.13.27-.18.57-.18.82h3.12c0-.26-.04-.55-.18-.82m-.5-4.74h-1.93l.96-3.51h3.28l-2.3,3.51Z"/>
      <path class="cls-2" d="m83.19,114.42c-2.32,0-3.25-1.66-3.25-3.1v-10.78h3.2v10.54c0,.41.21.65.65.65h1.11v2.69h-1.7Z"/>
      <path class="cls-2" d="m89.33,110.21c0,.86.66,1.64,1.85,1.64,1.11,0,1.59-.31,2.16-.88l1.91,1.91c-1.07,1.07-2.13,1.66-4.08,1.66-2.32,0-4.99-.84-4.99-5.36,0-3.43,1.95-5.36,4.7-5.36,3.04,0,4.71,2.22,4.71,4.97v1.43h-6.27Zm2.94-2.94c-.19-.45-.62-.82-1.38-.82s-1.19.37-1.38.82c-.13.27-.18.57-.18.82h3.12c0-.26-.04-.55-.18-.82m-.5-4.74h-1.93l.96-3.51h3.28l-2.3,3.51Z"/>
      <path class="cls-2" d="m101.68,117.93c-1.64,0-2.86-.29-3.93-1.36l1.98-1.98c.49.49,1.07.66,1.79.66,1.35,0,1.69-.91,1.69-1.59v-.76c-.58.58-1.28.88-2.26.88s-1.85-.33-2.45-.94c-.96-.96-.97-2.13-.97-4.03s.02-3.08.97-4.03c.6-.6,1.46-.94,2.47-.94,1.07,0,1.69.33,2.34.97v-.86h3.1v9.73c0,2.47-1.87,4.27-4.74,4.27m.29-11.22c-1.17,0-1.25,1.01-1.25,2.08s.08,2.08,1.25,2.08,1.25-1.01,1.25-2.08-.08-2.08-1.25-2.08"/>
      <path class="cls-2" d="m114.45,107.25c-.31-.31-.6-.55-1.15-.55-.43,0-1.28.26-1.28,1.44v6.27h-3.2v-10.49h3.12v.86c.47-.47,1.38-.97,2.47-.97s1.74.26,2.45.97l-2.42,2.45h0Z"/>
      <path class="cls-2" d="m123.16,114.42v-.86c-.65.65-1.23.96-2.34.96s-1.93-.35-2.52-.94c-.6-.6-.91-1.48-.91-2.45,0-1.58,1.07-3.04,3.57-3.04h2.13v-.27c0-.96-.47-1.3-1.58-1.3-.82,0-1.17.19-1.67.7l-1.98-1.98c1.07-1.07,2.05-1.4,3.82-1.4,3,0,4.62,1.25,4.62,3.8v6.8h-3.13Zm-.08-4.21h-1.62c-.62,0-1.01.35-1.01.84s.35.88,1.05.88c.62,0,.91-.06,1.27-.39.23-.21.31-.55.31-1.05,0,0,0-.27,0-.27Z"/>
      <path class="cls-2" d="m140.06,114.42v-6.27c0-1.2-.86-1.44-1.28-1.44s-1.28.23-1.28,1.44v6.27h-3.2v-6.27c0-1.2-.86-1.44-1.28-1.44s-1.28.23-1.28,1.44v6.27h-3.2v-10.49h3.12v.86c.65-.65,1.59-.97,2.44-.97,1.04,0,1.87.33,2.55,1.11.91-.8,1.75-1.11,2.96-1.11.99,0,1.95.33,2.52.89.89.89,1.15,1.89,1.15,3v6.71h-3.2Z"/>
      <path class="cls-2" d="m157.12,114.42v-6.27c0-1.2-.86-1.44-1.28-1.44s-1.28.23-1.28,1.44v6.27h-3.2v-6.27c0-1.2-.86-1.44-1.28-1.44s-1.28.23-1.28,1.44v6.27h-3.2v-10.49h3.12v.86c.65-.65,1.59-.97,2.44-.97,1.04,0,1.87.33,2.55,1.11.91-.8,1.75-1.11,2.96-1.11.99,0,1.95.33,2.52.89.89.89,1.15,1.89,1.15,3v6.71h-3.2Z"/>
      <path class="cls-2" d="m165.3,110.21c0,.86.66,1.64,1.85,1.64,1.11,0,1.59-.31,2.16-.88l1.91,1.91c-1.07,1.07-2.13,1.66-4.08,1.66-2.32,0-4.99-.84-4.99-5.36,0-3.43,1.95-5.36,4.7-5.36,3.04,0,4.71,2.22,4.71,4.97v1.43h-6.28,0Zm2.94-2.94c-.19-.45-.62-.82-1.38-.82s-1.19.37-1.38.82c-.13.27-.18.57-.18.82h3.12c0-.26-.04-.55-.18-.82"/>
      <polygon class="cls-2" points="36.83 111.38 36.83 100.54 33.42 100.54 33.42 114.42 41.48 114.42 41.48 111.38 36.83 111.38"/>
    </g>
  </g>
</svg>